<svg width="16" height="16" viewBox="0 0 16 16" fill="none" xmlns="http://www.w3.org/2000/svg">
<path d="M2.5 10.5C2.23478 10.5 1.98043 10.6054 1.79289 10.7929C1.60536 10.9804 1.5 11.2348 1.5 11.5C1.5 11.7652 1.60536 12.0196 1.79289 12.2071C1.98043 12.3946 2.23478 12.5 2.5 12.5C2.76522 12.5 3.01957 12.3946 3.20711 12.2071C3.39464 12.0196 3.5 11.7652 3.5 11.5C3.5 11.2348 3.39464 10.9804 3.20711 10.7929C3.01957 10.6054 2.76522 10.5 2.5 10.5ZM4.88438 10.75H15.25C15.6656 10.75 16 11.0844 16 11.5C16 11.9156 15.6656 12.25 15.25 12.25H4.88438C4.56563 13.2656 3.61875 14 2.5 14C1.11875 14 0 12.8813 0 11.5C0 10.1187 1.11875 9 2.5 9C3.61875 9 4.56563 9.73438 4.88438 10.75ZM12.5 4.5C12.5 4.76522 12.6054 5.01957 12.7929 5.20711C12.9804 5.39464 13.2348 5.5 13.5 5.5C13.7652 5.5 14.0196 5.39464 14.2071 5.20711C14.3946 5.01957 14.5 4.76522 14.5 4.5C14.5 4.23478 14.3946 3.98043 14.2071 3.79289C14.0196 3.60536 13.7652 3.5 13.5 3.5C13.2348 3.5 12.9804 3.60536 12.7929 3.79289C12.6054 3.98043 12.5 4.23478 12.5 4.5ZM11.1156 3.75C11.4344 2.73438 12.3813 2 13.5 2C14.8813 2 16 3.11875 16 4.5C16 5.88125 14.8813 7 13.5 7C12.3813 7 11.4344 6.26562 11.1156 5.25H0.75C0.334375 5.25 0 4.91563 0 4.5C0 4.08437 0.334375 3.75 0.75 3.75H11.1156Z" fill="currentColor"/>
</svg>
