<svg width="16" height="16" viewBox="0 0 16 16" fill="none" xmlns="http://www.w3.org/2000/svg">
<path d="M14.5 3.5V4.5H1.5V3.5H14.5ZM1.5 2H0V3.5V4.5V6H1.5H14.5H16V4.5V3.5V2H14.5H1.5ZM14.5 12.5H1.5V11.5H14.5V12.5ZM1.5 10H0V11.5V12.5V14H1.5H14.5H16V12.5V11.5V10H14.5H1.5ZM4.44375 6.775L4.2625 6.72813L4.08125 6.76875L0.83125 7.51875L0.1 7.6875L0.4375 9.15L1.16875 8.98125L4.2375 8.27188L7.80625 9.225L8 9.275L8.19375 9.225L11.7625 8.27188L14.8313 8.98125L15.5625 9.15L15.9 7.6875L15.1687 7.51875L11.9187 6.76875L11.7375 6.72813L11.5562 6.775L8 7.725L4.44375 6.775Z" fill="currentColor"/>
</svg>
