<svg width="16" height="16" viewBox="0 0 16 16" fill="none" xmlns="http://www.w3.org/2000/svg">
<g clip-path="url(#clip0_584_5166)">
<path d="M10.25 0L10.7062 2.0875C11.0781 2.25938 11.4344 2.4625 11.7625 2.7L13.8 2.05L16.05 5.94688L14.4687 7.3875C14.4875 7.5875 14.4969 7.79062 14.4969 7.99687C14.4969 8.20312 14.4875 8.40625 14.4687 8.60625L16.05 10.0469L13.8 13.9438L11.7625 13.2937C11.4312 13.5281 11.0781 13.7344 10.7062 13.9062L10.25 16H5.74999L5.29374 13.9125C4.92187 13.7406 4.56562 13.5375 4.23749 13.3L2.19687 13.95L-0.0531311 10.0531L1.52812 8.6125C1.50937 8.4125 1.49999 8.20938 1.49999 8.00313C1.49999 7.79688 1.50937 7.59375 1.52812 7.39375L-0.0531311 5.95L2.19687 2.05312L4.23437 2.70312C4.56562 2.46875 4.91874 2.2625 5.29062 2.09063L5.74999 0H10.25ZM12.2187 4.13125L11.5031 4.35938L10.8937 3.925C10.6375 3.74375 10.3656 3.58437 10.0812 3.45312L9.39999 3.14062L9.24062 2.40937L9.04374 1.5H6.95624L6.75624 2.40937L6.59687 3.14062L5.91562 3.45312C5.62812 3.58437 5.35624 3.74375 5.10312 3.925L4.49374 4.35938L3.78124 4.13125L2.89374 3.85L1.84999 5.65312L2.53749 6.28125L3.09062 6.78438L3.02187 7.52812C3.00624 7.68437 2.99999 7.84062 2.99999 8C2.99999 8.15938 3.00624 8.31563 3.02187 8.47188L3.09062 9.21562L2.53749 9.71875L1.84999 10.3469L2.89374 12.1531L3.78124 11.8719L4.49687 11.6438L5.10624 12.0781C5.36249 12.2594 5.63437 12.4187 5.91874 12.55L6.59999 12.8625L6.75937 13.5938L6.95937 14.5031H9.04374L9.24374 13.5938L9.40312 12.8625L10.0844 12.55C10.3719 12.4187 10.6437 12.2594 10.8969 12.0781L11.5062 11.6438L12.2219 11.8719L13.1094 12.1531L14.1531 10.3469L13.4625 9.71875L12.9094 9.21562L12.9781 8.47188C12.9937 8.31563 13 8.15938 13 8C13 7.84062 12.9937 7.68437 12.9781 7.52812L12.9094 6.78438L13.4625 6.28125L14.1531 5.65312L13.1094 3.84687L12.2219 4.12813L12.2187 4.13125ZM9.49999 8C9.49999 7.60218 9.34196 7.22064 9.06065 6.93934C8.77935 6.65804 8.39782 6.5 7.99999 6.5C7.60217 6.5 7.22064 6.65804 6.93933 6.93934C6.65803 7.22064 6.49999 7.60218 6.49999 8C6.49999 8.39782 6.65803 8.77936 6.93933 9.06066C7.22064 9.34196 7.60217 9.5 7.99999 9.5C8.39782 9.5 8.77935 9.34196 9.06065 9.06066C9.34196 8.77936 9.49999 8.39782 9.49999 8ZM4.99999 8C4.99999 7.20435 5.31606 6.44129 5.87867 5.87868C6.44128 5.31607 7.20434 5 7.99999 5C8.79564 5 9.55871 5.31607 10.1213 5.87868C10.6839 6.44129 11 7.20435 11 8C11 8.79565 10.6839 9.55871 10.1213 10.1213C9.55871 10.6839 8.79564 11 7.99999 11C7.20434 11 6.44128 10.6839 5.87867 10.1213C5.31606 9.55871 4.99999 8.79565 4.99999 8Z" fill="currentColor"/>
</g>
<defs>
<clipPath id="clip0_584_5166">
<rect width="16" height="16" fill="white"/>
</clipPath>
</defs>
</svg>
