<svg width="16" height="16" viewBox="0 0 16 16" fill="none" xmlns="http://www.w3.org/2000/svg">
<path d="M2.49857 10.5C2.23351 10.5 1.9793 10.6054 1.79187 10.7929C1.60444 10.9804 1.49914 11.2348 1.49914 11.5C1.49914 11.7652 1.60444 12.0196 1.79187 12.2071C1.9793 12.3946 2.23351 12.5 2.49857 12.5C2.76364 12.5 3.01785 12.3946 3.20528 12.2071C3.39271 12.0196 3.498 11.7652 3.498 11.5C3.498 11.2348 3.39271 10.9804 3.20528 10.7929C3.01785 10.6054 2.76364 10.5 2.49857 10.5ZM4.88159 10.75L16 10.7271C16 10.7271 16 11.0614 16 11.4771C16 11.8927 16 12.2271 16 12.2271L4.88159 12.25C4.56302 13.2656 3.61669 14 2.49857 14C1.11811 14 0 12.8813 0 11.5C0 10.1187 1.11811 9 2.49857 9C3.61669 9 4.56302 9.73438 4.88159 10.75ZM12.4929 4.5C12.4929 4.76522 12.5982 5.01957 12.7856 5.20711C12.973 5.39464 13.2272 5.5 13.4923 5.5C13.7574 5.5 14.0116 5.39464 14.199 5.20711C14.3864 5.01957 14.4917 4.76522 14.4917 4.5C14.4917 4.23478 14.3864 3.98043 14.199 3.79289C14.0116 3.60536 13.7574 3.5 13.4923 3.5C13.2272 3.5 12.973 3.60536 12.7856 3.79289C12.5982 3.98043 12.4929 4.23478 12.4929 4.5ZM11.1093 3.75C11.4279 2.73438 12.3742 2 13.4923 2C14.8728 2 15.9909 3.11875 15.9909 4.5C15.9909 5.88125 14.8728 7 13.4923 7C12.3742 7 11.4279 6.26562 11.1093 5.25L0.000383635 5.24586C0.000383635 5.24586 0.000383635 4.91149 0.000383635 4.49586C0.000383635 4.08024 0.000383635 3.74586 0.000383635 3.74586L11.1093 3.75Z" fill="currentColor"/>
</svg>
