<svg width="16" height="16" viewBox="0 0 16 16" fill="none" xmlns="http://www.w3.org/2000/svg">
<path d="M0 2H16V5.5H0V2ZM10 12L13 10.5H14H16V14H0V10.5H6H7L10 12ZM4.50625 6.53438L8 7.46562L11.4937 6.53438L11.7437 6.46875L11.9937 6.53125L14.9937 7.28125L15.9625 7.525L15.4781 9.46562L14.5094 9.22188L11.7594 8.53438L8.25937 9.46875L8.00313 9.5375L7.74687 9.46875L4.24062 8.53125L1.49063 9.21875L0.521875 9.4625L0.0375 7.52187L1.00625 7.27812L4.00625 6.52812L4.25625 6.46562L4.50625 6.53125V6.53438Z" fill="currentColor"/>
</svg>
