<svg width="140" height="29" viewBox="0 0 140 29" fill="none" xmlns="http://www.w3.org/2000/svg">
<circle cx="6.38835" cy="6.66008" r="6.38835" fill="white"/>
<circle cx="21.8835" cy="6.66019" r="5.75667" stroke="white" stroke-width="1.80705"/>
<circle cx="6.38835" cy="21.7475" r="6.38835" fill="white"/>
<circle cx="21.8834" cy="21.7475" r="6.38835" fill="white"/>
<path d="M32.2342 21.2362L35.007 18.0556C36.5022 20.0129 38.5954 21.073 40.6614 21.073C42.5099 21.073 43.8148 20.2847 43.8148 18.8167C43.8148 17.24 42.1837 17.0226 39.275 16.3701C36.4478 15.7449 33.3216 14.8206 33.3216 10.9061C33.3216 7.07305 36.5837 4.68081 40.6614 4.68081C44.0051 4.68081 46.5876 6.06722 48.0284 7.91577L45.3643 10.8789C44.1682 9.30217 42.5915 8.35072 40.5526 8.35072C38.8672 8.35072 37.6711 9.13907 37.6711 10.4167C37.6711 11.8031 38.9759 12.1022 41.4497 12.6187C44.4672 13.2711 48.1915 14.0595 48.1915 18.3546C48.1915 22.4323 44.7119 24.7973 40.4983 24.7973C37.2905 24.7973 33.8109 23.4381 32.2342 21.2362ZM56.5265 24.7973C52.1226 24.7973 49.1051 21.7798 49.1051 17.3216C49.1051 13.0808 52.2042 9.87305 56.4449 9.87305C60.9032 9.87305 63.3226 13.0808 63.3226 17.1313V18.273H53.3459C53.6449 20.2303 54.8682 21.3449 56.608 21.3449C58.076 21.3449 59.1906 20.6925 59.6255 19.442L63.2139 20.6109C62.1537 23.3565 59.4624 24.7973 56.5265 24.7973ZM56.4178 13.2439C55.0042 13.2439 53.9168 14.0323 53.4818 15.609H59.0546C59.0003 14.3313 58.1304 13.2439 56.4178 13.2439ZM68.9935 17.3488C68.9935 19.7682 70.2712 21.209 72.3644 21.209C73.9955 21.209 74.9741 20.2031 75.3003 18.8439L79.079 20.3119C78.4537 22.7041 76.0071 24.7973 72.31 24.7973C67.8518 24.7973 64.6712 21.7527 64.6712 17.3488C64.6712 12.9177 67.8518 9.87305 72.31 9.87305C75.98 9.87305 78.3994 11.9391 79.0246 14.3041L75.3003 15.8264C74.9741 14.4944 73.9955 13.4614 72.3644 13.4614C70.2712 13.4614 68.9935 14.9022 68.9935 17.3488ZM94.4004 17.3488C94.4004 21.807 91.4373 24.7973 87.1965 24.7973C82.9557 24.7973 79.9926 21.807 79.9926 17.3488C79.9926 12.8905 82.9557 9.87305 87.1965 9.87305C91.4373 9.87305 94.4004 12.8905 94.4004 17.3488ZM84.3421 17.3488C84.3421 19.8497 85.4567 21.2633 87.1965 21.2633C88.9363 21.2633 90.0509 19.8497 90.0509 17.3488C90.0509 14.8478 88.9363 13.4342 87.1965 13.4342C85.4567 13.4342 84.3421 14.8478 84.3421 17.3488ZM95.9393 24.4983V10.1721H100.289V11.6129C101.05 10.6886 102.382 9.87305 104.203 9.87305C107.139 9.87305 109.015 11.9119 109.015 15.0381V24.4983H104.666V16.2886C104.666 14.8478 104.067 13.7876 102.627 13.7876C101.431 13.7876 100.289 14.6303 100.289 16.3158V24.4983H95.9393ZM116.48 24.7973C112.729 24.7973 110.635 21.4264 110.635 17.3488C110.635 13.2439 112.729 9.87305 116.48 9.87305C118.084 9.87305 119.416 10.5798 120.177 11.6129V4.97984H124.527V24.4983H120.177V23.0847C119.416 24.0905 118.084 24.7973 116.48 24.7973ZM120.232 16.9682C120.232 14.7934 119.117 13.5973 117.622 13.5973C115.882 13.5973 114.958 15.1468 114.958 17.3488C114.958 19.5507 115.882 21.1002 117.622 21.1002C119.117 21.1002 120.232 19.8769 120.232 17.7294V16.9682ZM125.903 22.3235L128.104 19.5507C129.382 20.8012 131.503 21.5624 133.27 21.5624C134.629 21.5624 135.635 21.1546 135.635 20.3663C135.635 19.3604 134.629 19.2789 131.91 18.8439C129.382 18.4633 126.664 17.8109 126.664 14.7119C126.664 11.8031 129.437 9.87305 133.215 9.87305C136.07 9.87305 138.407 10.8789 139.685 12.2109L137.347 14.7663C136.205 13.6245 134.71 13.0536 133.106 13.0536C131.802 13.0536 130.986 13.4886 130.986 14.2226C130.986 15.0109 132.046 15.174 134.031 15.5274C136.803 15.9896 139.93 16.6148 139.93 19.8497C139.93 22.976 136.831 24.7973 132.97 24.7973C130.225 24.7973 127.343 23.8459 125.903 22.3235Z" fill="white"/>
</svg>
